<mxfile host="app.diagrams.net" modified="2022-12-23T01:37:26.950Z" agent="5.0 (Windows NT 10.0; Win64; x64) AppleWebKit/537.36 (KHTML, like Gecko) Chrome/108.0.0.0 Safari/537.36" etag="ebUuOU54JoqmjoN382TM" version="20.7.4" type="github">
  <diagram id="Us9jO3z87xNzmJYBW_6A" name="第 1 页">
    <mxGraphModel dx="2314" dy="1110" grid="1" gridSize="10" guides="1" tooltips="1" connect="1" arrows="1" fold="1" page="1" pageScale="1" pageWidth="827" pageHeight="1169" math="0" shadow="0">
      <root>
        <mxCell id="0" />
        <mxCell id="1" parent="0" />
        <mxCell id="JXJb3rMGecMADJpPMJTT-8" value="" style="rounded=1;whiteSpace=wrap;html=1;fontSize=16;" vertex="1" parent="1">
          <mxGeometry x="350" y="850" width="220" height="180" as="geometry" />
        </mxCell>
        <mxCell id="MfM9e1bgHj_mFn8Fd6dJ-1" value="" style="shape=umlActor;verticalLabelPosition=bottom;verticalAlign=top;html=1;outlineConnect=0;" parent="1" vertex="1">
          <mxGeometry x="210" y="190" width="30" height="60" as="geometry" />
        </mxCell>
        <mxCell id="MfM9e1bgHj_mFn8Fd6dJ-2" value="" style="shape=umlActor;verticalLabelPosition=bottom;verticalAlign=top;html=1;outlineConnect=0;" parent="1" vertex="1">
          <mxGeometry x="340" y="170" width="30" height="60" as="geometry" />
        </mxCell>
        <mxCell id="MfM9e1bgHj_mFn8Fd6dJ-3" value="" style="shape=umlActor;verticalLabelPosition=bottom;verticalAlign=top;html=1;outlineConnect=0;" parent="1" vertex="1">
          <mxGeometry x="655" y="180" width="30" height="60" as="geometry" />
        </mxCell>
        <mxCell id="MfM9e1bgHj_mFn8Fd6dJ-6" value="" style="shape=flexArrow;endArrow=classic;html=1;rounded=0;" parent="1" edge="1">
          <mxGeometry width="50" height="50" relative="1" as="geometry">
            <mxPoint x="230" y="260" as="sourcePoint" />
            <mxPoint x="230" y="350" as="targetPoint" />
          </mxGeometry>
        </mxCell>
        <mxCell id="MfM9e1bgHj_mFn8Fd6dJ-7" value="" style="shape=flexArrow;endArrow=classic;html=1;rounded=0;" parent="1" edge="1">
          <mxGeometry width="50" height="50" relative="1" as="geometry">
            <mxPoint x="354.5" y="260" as="sourcePoint" />
            <mxPoint x="354.5" y="350" as="targetPoint" />
          </mxGeometry>
        </mxCell>
        <mxCell id="MfM9e1bgHj_mFn8Fd6dJ-8" value="" style="shape=flexArrow;endArrow=classic;html=1;rounded=0;" parent="1" edge="1">
          <mxGeometry width="50" height="50" relative="1" as="geometry">
            <mxPoint x="669.5" y="340" as="sourcePoint" />
            <mxPoint x="669.5" y="260" as="targetPoint" />
          </mxGeometry>
        </mxCell>
        <mxCell id="MfM9e1bgHj_mFn8Fd6dJ-10" value="" style="shape=flexArrow;endArrow=classic;html=1;rounded=0;" parent="1" edge="1">
          <mxGeometry width="50" height="50" relative="1" as="geometry">
            <mxPoint x="520" y="399.5" as="sourcePoint" />
            <mxPoint x="600" y="399.5" as="targetPoint" />
          </mxGeometry>
        </mxCell>
        <mxCell id="MfM9e1bgHj_mFn8Fd6dJ-11" value="offical repo" style="shape=cylinder3;whiteSpace=wrap;html=1;boundedLbl=1;backgroundOutline=1;size=15;" parent="1" vertex="1">
          <mxGeometry x="310" y="670" width="60" height="80" as="geometry" />
        </mxCell>
        <mxCell id="MfM9e1bgHj_mFn8Fd6dJ-12" value="" style="shape=flexArrow;endArrow=classic;html=1;rounded=0;" parent="1" edge="1">
          <mxGeometry width="50" height="50" relative="1" as="geometry">
            <mxPoint x="340" y="570" as="sourcePoint" />
            <mxPoint x="340" y="660" as="targetPoint" />
          </mxGeometry>
        </mxCell>
        <mxCell id="MfM9e1bgHj_mFn8Fd6dJ-13" value="reviews" style="text;html=1;align=center;verticalAlign=middle;resizable=0;points=[];autosize=1;strokeColor=none;fillColor=none;" parent="1" vertex="1">
          <mxGeometry x="260" y="600" width="60" height="30" as="geometry" />
        </mxCell>
        <mxCell id="MfM9e1bgHj_mFn8Fd6dJ-14" value="" style="shape=image;html=1;verticalAlign=top;verticalLabelPosition=bottom;labelBackgroundColor=#ffffff;imageAspect=0;aspect=fixed;image=https://cdn4.iconfinder.com/data/icons/socialcones/508/Github-128.png" parent="1" vertex="1">
          <mxGeometry x="205.5" y="780" width="80" height="80" as="geometry" />
        </mxCell>
        <mxCell id="MfM9e1bgHj_mFn8Fd6dJ-15" value="" style="shape=flexArrow;endArrow=classic;html=1;rounded=0;" parent="1" edge="1">
          <mxGeometry width="50" height="50" relative="1" as="geometry">
            <mxPoint x="160" y="160" as="sourcePoint" />
            <mxPoint x="200" y="190" as="targetPoint" />
          </mxGeometry>
        </mxCell>
        <mxCell id="MfM9e1bgHj_mFn8Fd6dJ-18" value="" style="shape=image;html=1;verticalAlign=top;verticalLabelPosition=bottom;labelBackgroundColor=#ffffff;imageAspect=0;aspect=fixed;image=https://cdn4.iconfinder.com/data/icons/scripting-and-programming-languages/512/Python_logo-128.png" parent="1" vertex="1">
          <mxGeometry x="203" y="1030" width="78" height="78" as="geometry" />
        </mxCell>
        <mxCell id="MfM9e1bgHj_mFn8Fd6dJ-20" value="" style="sketch=0;html=1;aspect=fixed;strokeColor=none;shadow=0;align=center;verticalAlign=top;fillColor=#3B8DF1;shape=mxgraph.gcp2.repository_3" parent="1" vertex="1">
          <mxGeometry x="480" y="418" width="100" height="100" as="geometry" />
        </mxCell>
        <mxCell id="JXJb3rMGecMADJpPMJTT-5" style="edgeStyle=none;curved=1;rounded=0;orthogonalLoop=1;jettySize=auto;html=1;entryX=0;entryY=0.5;entryDx=0;entryDy=0;fontSize=12;endArrow=open;startSize=14;endSize=14;sourcePerimeterSpacing=8;targetPerimeterSpacing=8;" edge="1" parent="1" source="JXJb3rMGecMADJpPMJTT-1" target="MfM9e1bgHj_mFn8Fd6dJ-14">
          <mxGeometry relative="1" as="geometry" />
        </mxCell>
        <mxCell id="JXJb3rMGecMADJpPMJTT-6" style="edgeStyle=none;curved=1;rounded=0;orthogonalLoop=1;jettySize=auto;html=1;fontSize=12;endArrow=open;startSize=14;endSize=14;sourcePerimeterSpacing=8;targetPerimeterSpacing=8;" edge="1" parent="1" source="JXJb3rMGecMADJpPMJTT-1" target="JXJb3rMGecMADJpPMJTT-4">
          <mxGeometry relative="1" as="geometry" />
        </mxCell>
        <mxCell id="JXJb3rMGecMADJpPMJTT-7" style="edgeStyle=none;curved=1;rounded=0;orthogonalLoop=1;jettySize=auto;html=1;entryX=0;entryY=0.5;entryDx=0;entryDy=0;fontSize=12;endArrow=open;startSize=14;endSize=14;sourcePerimeterSpacing=8;targetPerimeterSpacing=8;" edge="1" parent="1" source="JXJb3rMGecMADJpPMJTT-1" target="MfM9e1bgHj_mFn8Fd6dJ-18">
          <mxGeometry relative="1" as="geometry" />
        </mxCell>
        <mxCell id="JXJb3rMGecMADJpPMJTT-1" value="" style="shape=umlActor;verticalLabelPosition=bottom;verticalAlign=top;html=1;outlineConnect=0;" vertex="1" parent="1">
          <mxGeometry x="110" y="910" width="30" height="60" as="geometry" />
        </mxCell>
        <mxCell id="JXJb3rMGecMADJpPMJTT-12" value="" style="edgeStyle=none;curved=1;rounded=0;orthogonalLoop=1;jettySize=auto;html=1;fontSize=12;endArrow=open;startSize=14;endSize=14;sourcePerimeterSpacing=8;targetPerimeterSpacing=8;" edge="1" parent="1" source="JXJb3rMGecMADJpPMJTT-4" target="JXJb3rMGecMADJpPMJTT-8">
          <mxGeometry relative="1" as="geometry" />
        </mxCell>
        <mxCell id="JXJb3rMGecMADJpPMJTT-4" value="" style="verticalLabelPosition=bottom;sketch=0;aspect=fixed;html=1;verticalAlign=top;strokeColor=none;align=center;outlineConnect=0;shape=mxgraph.citrix.ftp_server;fontSize=16;" vertex="1" parent="1">
          <mxGeometry x="210" y="900" width="71" height="97" as="geometry" />
        </mxCell>
        <mxCell id="JXJb3rMGecMADJpPMJTT-11" style="edgeStyle=none;curved=1;rounded=0;orthogonalLoop=1;jettySize=auto;html=1;entryX=1;entryY=0.5;entryDx=0;entryDy=0;fontSize=12;endArrow=open;startSize=14;endSize=14;sourcePerimeterSpacing=8;targetPerimeterSpacing=8;exitX=0.023;exitY=0.294;exitDx=0;exitDy=0;exitPerimeter=0;" edge="1" parent="1" source="JXJb3rMGecMADJpPMJTT-8" target="MfM9e1bgHj_mFn8Fd6dJ-14">
          <mxGeometry relative="1" as="geometry" />
        </mxCell>
        <mxCell id="JXJb3rMGecMADJpPMJTT-9" value="frontend" style="rounded=0;whiteSpace=wrap;html=1;fontSize=16;" vertex="1" parent="1">
          <mxGeometry x="370" y="870" width="70" height="30" as="geometry" />
        </mxCell>
        <mxCell id="JXJb3rMGecMADJpPMJTT-10" value="backend" style="rounded=0;whiteSpace=wrap;html=1;fontSize=16;" vertex="1" parent="1">
          <mxGeometry x="460" y="870" width="70" height="30" as="geometry" />
        </mxCell>
      </root>
    </mxGraphModel>
  </diagram>
</mxfile>
